<?xml version="1.0" standalone="no"?>
<!DOCTYPE svg PUBLIC "-//W3C//DTD SVG 1.1//EN" "http://www.w3.org/Graphics/SVG/1.1/DTD/svg11.dtd">
<svg
  xmlns="http://www.w3.org/2000/svg"
  xmlns:xlink="http://www.w3.org/1999/xlink"
  version="1.1"
  width="32" height="27" viewBox="0 0 32 27">
  <defs>
    <g id="settings">
      <path d="M23.66 7.045c.094.092.365.137.365.14a.5.5 0 0 0 .34-.14l2.866-2.758a1.058 1.058 0 0 1 1.443-.005l.015.014a.98.98 0 0 1 .004 1.427l-4.306 4.133a.538.538 0 0 1-.362.144c0-.003-.287-.05-.387-.144l-4.333-4.133a.98.98 0 0 1 .006-1.427l.018-.014a1.067 1.067 0 0 1 1.45.005l2.88 2.758M10.211 6.8h-.022c-.62 0-1.122-.502-1.122-1.122v-.023c0-.619.502-1.122 1.122-1.122h.022c.62 0 1.122.503 1.122 1.122v.023c0 .62-.502 1.122-1.122 1.122"/>
      <path d="M13.547 2.32l-.264 5.8a.569.569 0 0 1-.165.374l-4.252 4.252a.567.567 0 0 1-.802 0L3.121 7.802a.567.567 0 0 1 0-.8l4.252-4.253c.1-.1.233-.159.374-.166l5.8-.263M14.696 0l-.054.001L6.986.35c-.282.013-.55.131-.75.331L.343 6.573a1.172 1.172 0 0 0 0 1.657l7.293 7.293a1.168 1.168 0 0 0 1.658 0l5.893-5.893c.2-.2.318-.467.33-.75l.349-7.655A1.172 1.172 0 0 0 14.696 0"/>
    </g>
    <g id="heart">
      <path d="M14 26l-1.96-1.978C4.76 17.522 0 13.142 0 7.772 0 3.392 3.36 0 7.7 0c2.38 0 4.76 1.13 6.3 2.967C15.54 1.131 17.92 0 20.3 0 24.639 0 28 3.39 28 7.772c0 5.37-4.76 9.75-12.04 16.25L14 26z"/>
    </g>
  </defs>
</svg>
