<svg width="60" height="17" viewBox="0 0 60 17" fill="none" xmlns="http://www.w3.org/2000/svg">
<path d="M9.54643 14.0111V16.4531H0.229431V0.547093H3.18843V14.0111H9.54643Z" fill="#3C64B1"/>
<path d="M26.2695 8.50009C26.2695 9.66609 26.0752 10.7478 25.6865 11.7451C25.3052 12.7351 24.7625 13.5931 24.0585 14.3191C23.3545 15.0451 22.5075 15.6134 21.5175 16.0241C20.5275 16.4274 19.4275 16.6291 18.2175 16.6291C17.0149 16.6291 15.9185 16.4274 14.9285 16.0241C13.9385 15.6134 13.0879 15.0451 12.3765 14.3191C11.6725 13.5931 11.1262 12.7351 10.7375 11.7451C10.3489 10.7478 10.1545 9.66609 10.1545 8.50009C10.1545 7.33409 10.3489 6.25609 10.7375 5.26609C11.1262 4.26876 11.6725 3.40709 12.3765 2.68109C13.0879 1.95509 13.9385 1.39043 14.9285 0.987094C15.9185 0.576427 17.0149 0.371094 18.2175 0.371094C19.0242 0.371094 19.7832 0.466427 20.4945 0.657093C21.2059 0.840427 21.8585 1.10443 22.4525 1.44909C23.0465 1.78643 23.5782 2.20076 24.0475 2.69209C24.5242 3.17609 24.9275 3.71876 25.2575 4.32009C25.5875 4.92143 25.8369 5.57409 26.0055 6.27809C26.1815 6.98209 26.2695 7.72276 26.2695 8.50009ZM23.2445 8.50009C23.2445 7.62743 23.1272 6.84643 22.8925 6.15709C22.6579 5.46043 22.3242 4.87009 21.8915 4.38609C21.4589 3.90209 20.9309 3.53176 20.3075 3.27509C19.6915 3.01843 18.9949 2.89009 18.2175 2.89009C17.4402 2.89009 16.7399 3.01843 16.1165 3.27509C15.5005 3.53176 14.9725 3.90209 14.5325 4.38609C14.0999 4.87009 13.7662 5.46043 13.5315 6.15709C13.2969 6.84643 13.1795 7.62743 13.1795 8.50009C13.1795 9.37276 13.2969 10.1574 13.5315 10.8541C13.7662 11.5434 14.0999 12.1301 14.5325 12.6141C14.9725 13.0908 15.5005 13.4574 16.1165 13.7141C16.7399 13.9708 17.4402 14.0991 18.2175 14.0991C18.9949 14.0991 19.6915 13.9708 20.3075 13.7141C20.9309 13.4574 21.4589 13.0908 21.8915 12.6141C22.3242 12.1301 22.6579 11.5434 22.8925 10.8541C23.1272 10.1574 23.2445 9.37276 23.2445 8.50009Z" fill="#3C64B1"/>
<path d="M41.9801 8.47809V14.9131C41.1734 15.5071 40.3118 15.9434 39.3951 16.2221C38.4858 16.4934 37.5104 16.6291 36.4691 16.6291C35.1711 16.6291 33.9941 16.4274 32.9381 16.0241C31.8894 15.6208 30.9911 15.0598 30.2431 14.3411C29.5024 13.6224 28.9304 12.7644 28.5271 11.7671C28.1238 10.7698 27.9221 9.68076 27.9221 8.50009C27.9221 7.30476 28.1164 6.20843 28.5051 5.21109C28.8938 4.21376 29.4438 3.35576 30.1551 2.63709C30.8738 1.91843 31.7428 1.36109 32.7621 0.965093C33.7814 0.569093 34.9254 0.371094 36.1941 0.371094C36.8394 0.371094 37.4408 0.422427 37.9981 0.525093C38.5628 0.62776 39.0834 0.77076 39.5601 0.954093C40.0441 1.13009 40.4841 1.34643 40.8801 1.60309C41.2761 1.85976 41.6391 2.14209 41.9691 2.45009L41.1221 3.79209C40.9901 4.00476 40.8178 4.13676 40.6051 4.18809C40.3924 4.23209 40.1614 4.17709 39.9121 4.02309C39.6701 3.88376 39.4281 3.74443 39.1861 3.60509C38.9441 3.46576 38.6728 3.34476 38.3721 3.24209C38.0788 3.13943 37.7451 3.05509 37.3711 2.98909C37.0044 2.92309 36.5791 2.89009 36.0951 2.89009C35.3104 2.89009 34.5991 3.02209 33.9611 3.28609C33.3304 3.55009 32.7914 3.92776 32.3441 4.41909C31.8968 4.91043 31.5521 5.50076 31.3101 6.19009C31.0681 6.87943 30.9471 7.64943 30.9471 8.50009C30.9471 9.40943 31.0754 10.2234 31.3321 10.9421C31.5961 11.6534 31.9628 12.2584 32.4321 12.7571C32.9088 13.2484 33.4808 13.6261 34.1481 13.8901C34.8154 14.1468 35.5598 14.2751 36.3811 14.2751C36.9678 14.2751 37.4921 14.2128 37.9541 14.0881C38.4161 13.9634 38.8671 13.7948 39.3071 13.5821V10.7001H37.3051C37.1144 10.7001 36.9641 10.6488 36.8541 10.5461C36.7514 10.4361 36.7001 10.3041 36.7001 10.1501V8.47809H41.9801Z" fill="#3C64B1"/>
<path d="M60 8.50009C60 9.66609 59.8057 10.7478 59.417 11.7451C59.0357 12.7351 58.493 13.5931 57.789 14.3191C57.085 15.0451 56.238 15.6134 55.248 16.0241C54.258 16.4274 53.158 16.6291 51.948 16.6291C50.7453 16.6291 49.649 16.4274 48.659 16.0241C47.669 15.6134 46.8183 15.0451 46.107 14.3191C45.403 13.5931 44.8567 12.7351 44.468 11.7451C44.0793 10.7478 43.885 9.66609 43.885 8.50009C43.885 7.33409 44.0793 6.25609 44.468 5.26609C44.8567 4.26876 45.403 3.40709 46.107 2.68109C46.8183 1.95509 47.669 1.39043 48.659 0.987094C49.649 0.576427 50.7453 0.371094 51.948 0.371094C52.7547 0.371094 53.5137 0.466427 54.225 0.657093C54.9363 0.840427 55.589 1.10443 56.183 1.44909C56.777 1.78643 57.3087 2.20076 57.778 2.69209C58.2547 3.17609 58.658 3.71876 58.988 4.32009C59.318 4.92143 59.5673 5.57409 59.736 6.27809C59.912 6.98209 60 7.72276 60 8.50009ZM56.975 8.50009C56.975 7.62743 56.8577 6.84643 56.623 6.15709C56.3883 5.46043 56.0547 4.87009 55.622 4.38609C55.1893 3.90209 54.6613 3.53176 54.038 3.27509C53.422 3.01843 52.7253 2.89009 51.948 2.89009C51.1707 2.89009 50.4703 3.01843 49.847 3.27509C49.231 3.53176 48.703 3.90209 48.263 4.38609C47.8303 4.87009 47.4967 5.46043 47.262 6.15709C47.0273 6.84643 46.91 7.62743 46.91 8.50009C46.91 9.37276 47.0273 10.1574 47.262 10.8541C47.4967 11.5434 47.8303 12.1301 48.263 12.6141C48.703 13.0908 49.231 13.4574 49.847 13.7141C50.4703 13.9708 51.1707 14.0991 51.948 14.0991C52.7253 14.0991 53.422 13.9708 54.038 13.7141C54.6613 13.4574 55.1893 13.0908 55.622 12.6141C56.0547 12.1301 56.3883 11.5434 56.623 10.8541C56.8577 10.1574 56.975 9.37276 56.975 8.50009Z" fill="#3C64B1"/>
</svg>
