<svg width="18" height="21" viewBox="0 0 18 21" fill="none" xmlns="http://www.w3.org/2000/svg">
<path d="M14.0108 8.01383C14.0108 6.5652 13.4624 5.1759 12.4864 4.15156C11.5105 3.12722 10.1867 2.55176 8.80645 2.55176C7.42618 2.55176 6.10245 3.12722 5.12646 4.15156C4.15046 5.1759 3.60215 6.5652 3.60215 8.01383C3.60215 14.3862 1 16.2069 1 16.2069H16.6129C16.6129 16.2069 14.0108 14.3862 14.0108 8.01383Z" stroke="#3F4C67" stroke-width="1.5" stroke-linecap="round" stroke-linejoin="round"/>
<path d="M10.2259 19.2412C10.0817 19.4719 9.87464 19.6635 9.62554 19.7966C9.37644 19.9298 9.09403 19.9998 8.80656 19.9998C8.5191 19.9998 8.23668 19.9298 7.98758 19.7966C7.73848 19.6635 7.53145 19.4719 7.38721 19.2412" stroke="#3F4C67" stroke-width="1.5" stroke-linecap="round" stroke-linejoin="round"/>
<path d="M7.38712 2.55176C7.53136 2.09028 7.7384 1.70722 7.9875 1.44095C8.23659 1.17467 8.51901 1.03452 8.80648 1.03452C9.09394 1.03452 9.37636 1.17467 9.62546 1.44095C9.87455 1.70722 10.0816 2.09028 10.2258 2.55176" fill="#3F4C67" stroke="#3F4C67" stroke-width="1.5" stroke-linecap="round" stroke-linejoin="round"/>
</svg>
