<svg width="16" height="16" viewBox="0 0 16 16" fill="none" xmlns="http://www.w3.org/2000/svg">
<g clip-path="url(#clip0)">
<path d="M8 10C9.10457 10 10 9.10457 10 8C10 6.89543 9.10457 6 8 6C6.89543 6 6 6.89543 6 8C6 9.10457 6.89543 10 8 10Z" stroke-width="1.5" stroke-linecap="round" stroke-linejoin="round"/>
<path d="M12.9333 10.0001C12.8445 10.2012 12.8181 10.4242 12.8573 10.6405C12.8965 10.8567 12.9996 11.0563 13.1533 11.2134L13.1933 11.2534C13.3173 11.3772 13.4156 11.5243 13.4827 11.6862C13.5498 11.848 13.5843 12.0215 13.5843 12.1967C13.5843 12.372 13.5498 12.5455 13.4827 12.7073C13.4156 12.8692 13.3173 13.0162 13.1933 13.1401C13.0695 13.264 12.9224 13.3624 12.7605 13.4295C12.5987 13.4966 12.4252 13.5311 12.25 13.5311C12.0747 13.5311 11.9012 13.4966 11.7394 13.4295C11.5775 13.3624 11.4305 13.264 11.3066 13.1401L11.2666 13.1001C11.1095 12.9464 10.9099 12.8433 10.6937 12.8041C10.4774 12.7649 10.2544 12.7913 10.0533 12.8801C9.85611 12.9646 9.68795 13.1049 9.5695 13.2838C9.45105 13.4626 9.38748 13.6722 9.38663 13.8867V14.0001C9.38663 14.3537 9.24615 14.6928 8.9961 14.9429C8.74605 15.1929 8.40691 15.3334 8.05329 15.3334C7.69967 15.3334 7.36053 15.1929 7.11048 14.9429C6.86043 14.6928 6.71996 14.3537 6.71996 14.0001V13.9401C6.7148 13.7194 6.64337 13.5054 6.51497 13.3259C6.38656 13.1464 6.20712 13.0096 5.99996 12.9334C5.79888 12.8447 5.57583 12.8182 5.35957 12.8574C5.1433 12.8966 4.94375 12.9997 4.78663 13.1534L4.74663 13.1934C4.62279 13.3174 4.47574 13.4157 4.31388 13.4828C4.15202 13.5499 3.97851 13.5845 3.80329 13.5845C3.62807 13.5845 3.45457 13.5499 3.29271 13.4828C3.13084 13.4157 2.98379 13.3174 2.85996 13.1934C2.73599 13.0696 2.63765 12.9225 2.57055 12.7607C2.50345 12.5988 2.46891 12.4253 2.46891 12.2501C2.46891 12.0749 2.50345 11.9014 2.57055 11.7395C2.63765 11.5776 2.73599 11.4306 2.85996 11.3067L2.89996 11.2667C3.05365 11.1096 3.15675 10.9101 3.19596 10.6938C3.23517 10.4775 3.2087 10.2545 3.11996 10.0534C3.03545 9.85623 2.89513 9.68807 2.71627 9.56962C2.53741 9.45117 2.32782 9.3876 2.11329 9.38675H1.99996C1.64634 9.38675 1.3072 9.24627 1.05715 8.99622C0.807102 8.74617 0.666626 8.40704 0.666626 8.05341C0.666626 7.69979 0.807102 7.36065 1.05715 7.11061C1.3072 6.86056 1.64634 6.72008 1.99996 6.72008H2.05996C2.28062 6.71492 2.49463 6.64349 2.67416 6.51509C2.85369 6.38668 2.99044 6.20724 3.06663 6.00008C3.15537 5.799 3.18184 5.57595 3.14263 5.35969C3.10342 5.14343 3.00032 4.94387 2.84663 4.78675L2.80663 4.74675C2.68266 4.62292 2.58431 4.47587 2.51721 4.314C2.45011 4.15214 2.41558 3.97864 2.41558 3.80341C2.41558 3.62819 2.45011 3.45469 2.51721 3.29283C2.58431 3.13096 2.68266 2.98391 2.80663 2.86008C2.93046 2.73611 3.07751 2.63777 3.23937 2.57067C3.40124 2.50357 3.57474 2.46903 3.74996 2.46903C3.92518 2.46903 4.09868 2.50357 4.26055 2.57067C4.42241 2.63777 4.56946 2.73611 4.69329 2.86008L4.73329 2.90008C4.89041 3.05377 5.08997 3.15687 5.30623 3.19608C5.5225 3.2353 5.74555 3.20882 5.94663 3.12008H5.99996C6.19714 3.03557 6.3653 2.89525 6.48375 2.71639C6.6022 2.53753 6.66577 2.32794 6.66663 2.11341V2.00008C6.66663 1.64646 6.8071 1.30732 7.05715 1.05727C7.3072 0.807224 7.64634 0.666748 7.99996 0.666748C8.35358 0.666748 8.69272 0.807224 8.94277 1.05727C9.19282 1.30732 9.33329 1.64646 9.33329 2.00008V2.06008C9.33415 2.27461 9.39771 2.4842 9.51616 2.66306C9.63461 2.84192 9.80278 2.98224 9.99996 3.06675C10.201 3.15549 10.4241 3.18196 10.6404 3.14275C10.8566 3.10354 11.0562 3.00044 11.2133 2.84675L11.2533 2.80675C11.3771 2.68278 11.5242 2.58443 11.686 2.51733C11.8479 2.45024 12.0214 2.4157 12.1966 2.4157C12.3718 2.4157 12.5453 2.45024 12.7072 2.51733C12.8691 2.58443 13.0161 2.68278 13.14 2.80675C13.2639 2.93058 13.3623 3.07763 13.4294 3.23949C13.4965 3.40136 13.531 3.57486 13.531 3.75008C13.531 3.9253 13.4965 4.0988 13.4294 4.26067C13.3623 4.42253 13.2639 4.56958 13.14 4.69341L13.1 4.73341C12.9463 4.89053 12.8432 5.09009 12.804 5.30636C12.7647 5.52262 12.7912 5.74567 12.88 5.94675V6.00008C12.9645 6.19726 13.1048 6.36543 13.2836 6.48388C13.4625 6.60233 13.6721 6.66589 13.8866 6.66675H14C14.3536 6.66675 14.6927 6.80722 14.9428 7.05727C15.1928 7.30732 15.3333 7.64646 15.3333 8.00008C15.3333 8.3537 15.1928 8.69284 14.9428 8.94289C14.6927 9.19294 14.3536 9.33341 14 9.33341H13.94C13.7254 9.33427 13.5158 9.39784 13.337 9.51629C13.1581 9.63474 13.0178 9.8029 12.9333 10.0001V10.0001Z"  stroke-width="1.5" stroke-linecap="round" stroke-linejoin="round"/>
</g>
<defs>
<clipPath id="clip0">
<rect width="16" height="16" fill="white"/>
</clipPath>
</defs>
</svg>
