<svg width="16" height="16" viewBox="0 0 16 16" fill="none" xmlns="http://www.w3.org/2000/svg">
<path d="M13.3333 14.384L2.66675 14.384"  stroke-width="1.5" stroke-linecap="round" stroke-linejoin="round"/>
<path d="M13.3333 14.3841V12.9098C13.3333 12.1278 13.0524 11.3778 12.5523 10.8248C12.0522 10.2718 11.3739 9.96118 10.6667 9.96118H5.33339C4.62616 9.96118 3.94788 10.2718 3.44779 10.8248C2.9477 11.3778 2.66675 12.1278 2.66675 12.9098V14.3841"  stroke-width="1.5" stroke-linecap="round" stroke-linejoin="round"/>
<path d="M8.00002 7.30748C9.47277 7.30748 10.6667 6.11936 10.6667 4.65374C10.6667 3.18812 9.47277 2 8.00002 2C6.52727 2 5.33337 3.18812 5.33337 4.65374C5.33337 6.11936 6.52727 7.30748 8.00002 7.30748Z"  stroke-width="1.5" stroke-linecap="round" stroke-linejoin="round"/>
</svg>
